<svg xmlns="http://www.w3.org/2000/svg" viewBox="0 0 1600 700" role="img" aria-label="Ilustracion decorativa de un hogar y un corazon protegido">
  <g fill="none" stroke-linecap="round" stroke-linejoin="round">
    <path d="M120 230 800 70l680 160" stroke="#2e7d32" stroke-width="18"/>
    <path d="M225 255 800 120l575 135" stroke="#2e7d32" stroke-width="7"/>
    <path d="M710 225c0-72 93-106 145-40 52-66 145-32 145 40 0 76-145 156-145 156S710 301 710 225Z" stroke="#c62828" stroke-width="11"/>
    <path d="M205 555c124-111 261-143 394-98 89 30 151 83 230 83 84 0 144-58 229-93 145-59 290-13 362 108" stroke="#6b6b6b" stroke-width="18"/>
    <path d="M330 570c70-72 143-99 218-82 63 14 102 63 162 73 66 11 107-33 172-68 89-48 188-39 258 41" stroke="#6b6b6b" stroke-width="9"/>
  </g>
</svg>
